<svg width="140" height="140" viewBox="0 0 140 140" fill="none" xmlns="http://www.w3.org/2000/svg">
<circle cx="70" cy="70" r="70" fill="#222125"/>
<path d="M45.6695 48.0312H41.6934V68.6427H45.6695V48.0312Z" fill="white"/>
<path d="M73.2724 53.5374V64.0717H69.2978V53.6609C69.2679 52.9118 68.9026 51.2547 66.1831 51.2547C63.4636 51.2547 63.1219 53.2086 63.1171 54.0507V64.0717H59.1426V54.0459C59.1426 53.9673 59.1457 53.8342 59.1552 53.6641C59.1583 53.624 59.1599 53.5807 59.1662 53.5374H59.1426V53.6641C59.1158 52.9166 58.7442 51.2547 56.0199 51.2547C53.2957 51.2547 52.965 53.2118 52.9619 54.0539V64.0717H48.9842V54.1053C48.9385 53.523 48.981 51.1553 50.8927 49.1742C51.7619 48.2695 53.3587 47.1963 56.0215 47.1963C58.1663 47.1963 59.8953 47.8219 61.1661 49.0619C62.0589 48.1844 63.6289 47.1963 66.1847 47.1963C68.3924 47.1963 70.1624 47.8588 71.4426 49.1726C73.0582 50.8312 73.263 52.9246 73.274 53.539L73.2724 53.5374Z" fill="white"/>
<path d="M59.1662 53.5371C59.1615 53.5804 59.1583 53.6237 59.1552 53.6638C59.1442 53.8339 59.1426 53.967 59.1426 54.0456V53.5371H59.1662Z" fill="#231F20"/>
<path d="M38.5344 55.8818V56.1239C38.5344 56.0416 38.5344 55.9625 38.5312 55.8818H38.5344Z" fill="#231F20"/>
<path d="M38.5321 55.8811C38.4077 51.1248 34.5843 47.3086 29.8838 47.3086C25.1834 47.3086 21.2324 51.2547 21.2324 56.1217C21.2324 60.9886 25.1062 64.9348 29.8838 64.9348C31.8255 64.9348 33.619 64.2819 35.0631 63.1814V64.253H38.5353V56.1217C38.5353 56.0399 38.5353 55.9613 38.5321 55.8811ZM29.9043 61.2645C27.0557 61.2645 24.7472 58.9129 24.7472 56.0142C24.7472 53.1155 27.0557 50.7607 29.9043 50.7607C32.753 50.7607 35.0615 53.1123 35.0615 56.0142C35.0615 58.9161 32.753 61.2645 29.9043 61.2645Z" fill="white"/>
<path d="M43.5787 45.3899C45.0093 45.3899 46.1691 44.2085 46.1691 42.7511C46.1691 41.2937 45.0093 40.1123 43.5787 40.1123C42.148 40.1123 40.9883 41.2937 40.9883 42.7511C40.9883 44.2085 42.148 45.3899 43.5787 45.3899Z" fill="white"/>
<path d="M59.1406 53.6631H59.1436V53.6912L59.1406 53.6631Z" fill="#231F20"/>
<path d="M59.1658 53.5371C59.1611 53.5797 59.1581 53.6222 59.155 53.6617H59.1426V53.5371H59.1658Z" fill="#231F20"/>
<path d="M73.2734 53.6879V53.5371C73.2766 53.6109 73.2766 53.6622 73.2734 53.6879Z" fill="#231F20"/>
<path d="M116.196 67.1387V82.4966H112.222L106.025 73.5103V82.4966H102.051V67.1387H106.025L112.222 76.1282V67.1387H116.196Z" fill="#F8D237"/>
<path d="M81.2422 67.3524L81.1603 67.1406H76.7653L76.7196 67.2593L70.8633 82.4584H75.1355L76.2519 79.5598L81.7209 79.6849L82.7885 82.46H87.0591L81.2422 67.354V67.3524ZM77.4629 76.4173L78.962 72.5257L80.4894 76.4879L77.4629 76.4173Z" fill="#F8D237"/>
<path d="M63.2089 70.3084V73.0403L69.1377 73.175L69.0684 76.3416L63.2089 76.2068V79.33H70.04V82.4966H59.2344V67.1387H70.04V70.3084H63.2089Z" fill="#F8D237"/>
<path d="M97.766 77.0538C99.0069 76.2437 100.008 74.8241 100.008 72.5911C100.008 70.5827 99.2163 69.3588 98.5502 68.6851C97.0732 67.1836 95.0701 67.1483 94.8575 67.1499H91.6105V67.1387H87.6328V82.4966H91.6105V77.9248H93.6561L96.3708 82.4581H100.991L97.766 77.0522V77.0538ZM94.8749 74.407H91.6089V70.6694H94.8402C95.6213 70.6886 96.5535 71.0367 96.5535 72.5911C96.5535 74.0525 95.626 74.3861 94.8749 74.407Z" fill="#F8D237"/>
<path d="M41.6871 71.1504H45.3798C45.3798 71.1504 45.3089 83.9962 58.9018 89.6027C72.4946 95.2107 83.6435 87.6569 84.6828 86.1698H89.8699C89.8699 86.1698 83.2782 95.5829 69.0586 95.2011C69.0586 95.2011 44.5972 96.2213 41.6855 71.1504H41.6871Z" fill="#F8D237"/>
</svg>
