<svg width="109" height="60" viewBox="0 0 109 60" fill="none" xmlns="http://www.w3.org/2000/svg">
<path d="M29.6695 8.03125H25.6934V28.6427H29.6695V8.03125Z" fill="white"/>
<path d="M57.2724 13.5374V24.0717H53.2978V13.6609C53.2679 12.9118 52.9026 11.2547 50.1831 11.2547C47.4636 11.2547 47.1219 13.2086 47.1171 14.0507V24.0717H43.1426V14.0459C43.1426 13.9673 43.1457 13.8342 43.1552 13.6641C43.1583 13.624 43.1599 13.5807 43.1662 13.5374H43.1426V13.6641C43.1158 12.9166 42.7442 11.2547 40.0199 11.2547C37.2957 11.2547 36.965 13.2118 36.9619 14.0539V24.0717H32.9842V14.1053C32.9385 13.523 32.981 11.1553 34.8927 9.17418C35.7619 8.26945 37.3587 7.19629 40.0215 7.19629C42.1663 7.19629 43.8953 7.8219 45.1661 9.06189C46.0589 8.18443 47.6289 7.19629 50.1847 7.19629C52.3924 7.19629 54.1624 7.8588 55.4426 9.17258C57.0582 10.8312 57.263 12.9246 57.274 13.539L57.2724 13.5374Z" fill="white"/>
<path d="M43.1662 13.5371C43.1615 13.5804 43.1583 13.6237 43.1552 13.6638C43.1442 13.8339 43.1426 13.967 43.1426 14.0456V13.5371H43.1662Z" fill="white"/>
<path d="M22.5344 15.8818V16.1239C22.5344 16.0416 22.5344 15.9625 22.5312 15.8818H22.5344Z" fill="white"/>
<path d="M22.5321 15.8811C22.4077 11.1248 18.5843 7.30859 13.8838 7.30859C9.18336 7.30859 5.23242 11.2547 5.23242 16.1217C5.23242 20.9886 9.10619 24.9348 13.8838 24.9348C15.8255 24.9348 17.619 24.2819 19.0631 23.1814V24.253H22.5353V16.1217C22.5353 16.0399 22.5353 15.9613 22.5321 15.8811ZM13.9043 21.2645C11.0557 21.2645 8.74716 18.9129 8.74716 16.0142C8.74716 13.1155 11.0557 10.7607 13.9043 10.7607C16.753 10.7607 19.0615 13.1123 19.0615 16.0142C19.0615 18.9161 16.753 21.2645 13.9043 21.2645Z" fill="white"/>
<path d="M27.5787 5.38989C29.0093 5.38989 30.1691 4.20846 30.1691 2.75109C30.1691 1.29373 29.0093 0.112305 27.5787 0.112305C26.148 0.112305 24.9883 1.29373 24.9883 2.75109C24.9883 4.20846 26.148 5.38989 27.5787 5.38989Z" fill="white"/>
<path d="M43.1406 13.6631H43.1436V13.6912L43.1406 13.6631Z" fill="white"/>
<path d="M43.1658 13.5371C43.1611 13.5797 43.1581 13.6222 43.155 13.6617H43.1426V13.5371H43.1658Z" fill="white"/>
<path d="M57.2734 13.6879V13.5371C57.2766 13.6109 57.2766 13.6622 57.2734 13.6879Z" fill="white"/>
<path d="M100.196 27.1387V42.4966H96.2218L90.0253 33.5103V42.4966H86.0508V27.1387H90.0253L96.2218 36.1282V27.1387H100.196Z" fill="#F8D237"/>
<path d="M65.2422 27.3524L65.1603 27.1406H60.7653L60.7196 27.2593L54.8633 42.4584H59.1355L60.2519 39.5598L65.7209 39.6849L66.7885 42.46H71.0591L65.2422 27.354V27.3524ZM61.4629 36.4173L62.962 32.5257L64.4894 36.4879L61.4629 36.4173Z" fill="#F8D237"/>
<path d="M47.2089 30.3084V33.0403L53.1377 33.175L53.0684 36.3416L47.2089 36.2068V39.33H54.04V42.4966H43.2344V27.1387H54.04V30.3084H47.2089Z" fill="#F8D237"/>
<path d="M81.766 37.0538C83.0069 36.2437 84.0084 34.8241 84.0084 32.5911C84.0084 30.5827 83.2163 29.3588 82.5502 28.6851C81.0732 27.1836 79.0701 27.1483 78.8575 27.1499H75.6105V27.1387H71.6328V42.4966H75.6105V37.9248H77.6561L80.3708 42.4581H84.991L81.766 37.0522V37.0538ZM78.8749 34.407H75.6089V30.6694H78.8402C79.6213 30.6886 80.5535 31.0367 80.5535 32.5911C80.5535 34.0525 79.626 34.3861 78.8749 34.407Z" fill="#F8D237"/>
<path d="M25.6871 31.1504H29.3798C29.3798 31.1504 29.3089 43.9962 42.9018 49.6027C56.4946 55.2107 67.6435 47.6569 68.6828 46.1698H73.8699C73.8699 46.1698 67.2782 55.5829 53.0586 55.2011C53.0586 55.2011 28.5972 56.2213 25.6855 31.1504H25.6871Z" fill="#F8D237"/>
</svg>
